<svg width="327" height="65" xmlns="http://www.w3.org/2000/svg"><path style="fill:#000" d="M203.41 62.504c-3.168-4.836.198-13.445 7.805-19.956 3.643-3.118 4.115-4.043 4.473-8.767l.4-5.281-1.665 3c-4.137 7.45-9.207 9.606-12.927 5.496-1.802-1.991-1.825-1.985-3.64 1-1.453 2.39-2.52 3.004-5.219 3.004-3.88 0-5.363-1.379-6.25-5.816l-.625-3.126-2.164 3.221c-2.508 3.735-6.8 4.752-9.55 2.264-1.646-1.489-1.891-1.43-3.348.792-2.335 3.563-5.461 3.994-8.31 1.146-2.002-2.002-2.39-3.39-2.39-8.54v-6.148l-3.403 2.988c-1.872 1.643-3.961 3.174-4.643 3.401-.979.326-.984.893-.026 2.683.995 1.86.922 2.716-.41 4.747-3.155 4.816-10.736 5.825-15.162 2.018-2.696-2.32-2.719-2.428-1.033-5 .948-1.447 2.05-2.637 2.45-2.645.4-.009 1.33-.398 2.067-.865 1.047-.664.769-1.42-1.273-3.462l-2.612-2.613-2.094 2.094c-1.648 1.648-2.918 1.982-5.977 1.572-3.254-.436-3.884-.232-3.884 1.262 0 3.128-2.925 8.916-5.091 10.076-2.976 1.593-6.514.405-9.063-3.043l-2.192-2.966-1.812 2.98c-3.589 5.9-11.55 2.49-13.815-5.919l-1.11-4.12-3.458 2.76C85.557 32.257 84 34 84 34.613c0 .612-1.186 2.3-2.636 3.75-2.616 2.615-7.085 3.448-10.82 2.015-1.94-.745-4.544-5.49-4.544-8.282 0-1.605-.98-1.021-4.952 2.95C56.716 39.38 55.579 40 51.982 40c-4.952 0-7.818-1.383-8.895-4.293-.76-2.057-.883-2.002-2.492 1.108-1.844 3.567-5.553 5.799-8.046 4.842-2.757-1.058-3.487-4.974-2.352-12.618 1.181-7.96.296-10.523-2.759-7.988-2.417 2.006-3.63 5.64-4.322 12.949-.534 5.632-.9 6.54-2.741 6.803-1.17.167-2.912-.483-3.873-1.443-1.465-1.466-1.627-2.722-1.004-7.804C16.698 21.775 16.641 20.5 15 20.5c-2.243 0-6.299 9.06-6.809 15.209-.425 5.13-.577 5.384-3.046 5.095-4.002-.468-5.33-4.04-4.803-12.927C.873 18.911 2.132 16 5.476 16c3.195 0 3.492.709 2.52 6.009-.452 2.47-.668 4.647-.479 4.838.189.19 1.256-1.441 2.37-3.627 2.182-4.275 3.659-5.22 8.16-5.22 1.902 0 3.264.712 4.003 2.094l1.121 2.094 2.229-2.094C26.822 18.758 28.95 18 31.28 18c5.181 0 6.147 2.29 5.348 12.684-.915 11.903 1.9 10.547 5.724-2.758.88-3.066 2.429-6.323 3.44-7.237C50.86 16.102 59 16.557 59 21.429c0 4-1.995 7.253-5.655 9.224-3.724 2.006-4.184 4.804-1.106 6.733 2.725 1.708 6.683-1.242 11.415-8.508C70.434 18.468 73.162 16 77.89 16c4.904 0 7.224 2.79 7.457 8.969.09 2.359.645 4.022 1.345 4.025 1.716.008 4.196-3.886 4.915-7.719.44-2.342 1.291-3.463 2.948-3.878 3.82-.96 4.444.267 4.444 8.728C99 34.434 100.051 38 102.5 38c2.398 0 3.958-4.132 4.492-11.897.558-8.118 2.295-10.678 5.758-8.484 1.441.913 1.7 2.324 1.464 7.995-.493 11.855 2.763 17.198 6.306 10.347 1.735-3.355 1.946-6.575.925-14.114-.568-4.19-.413-4.722 1.563-5.35 3.02-.958 3.822.193 4.182 6.003.296 4.776.44 5 3.201 5 2.984 0 3.374-.426 6.172-6.743 3.266-7.372 14.538-7.372 15.25 0 .173 1.784-.123 3.243-.656 3.243s-.734-.902-.445-2.005c1.114-4.262-4.626-6.893-6.677-3.06-1.713 3.2-1.19 5.542 1.9 8.503 3.487 3.34 6.279 3.033 10.799-1.19 2.196-2.05 3.151-4.069 3.674-7.76.388-2.743.936-5.776 1.216-6.738.41-1.402-.11-1.75-2.616-1.75-1.83 0-2.87-.415-2.508-1 .34-.55 1.708-1 3.04-1 1.816 0 2.586-.688 3.079-2.75.876-3.669 2.233-5.25 4.503-5.25C168.646 0 169 .754 169 4c0 3.905.083 4 3.5 4 1.925 0 3.5.45 3.5 1s-1.764 1-3.92 1h-3.92l-.723 6.745c-1.14 10.64-1.07 21.51.141 21.931 1.382.482 4.16-5.095 4.907-9.854.847-5.385 5.369-9.822 10.01-9.822 2.83 0 3.812-.459 4.207-1.967.548-2.098 3.618-3.571 5.29-2.539.582.36 1.008 5.43 1.008 12.006 0 6.26.42 11.641.932 11.958 1.345.831 3.686-2.915 6.62-10.596 3.07-8.034 5.893-10.366 11.47-9.475 3.424.548 3.822.372 4.406-1.955.52-2.074 1.156-2.499 3.357-2.245l2.715.313.5 10.495.5 10.495 3.25-4.917c3.665-5.543 3.909-6.781 1.7-8.615-1.004-.832-1.445-2.553-1.25-4.872.282-3.374.507-3.586 3.8-3.586 2.622 0 3.4.376 3.1 1.5-2.035 7.65-.391 9.2 4.242 4 3.03-3.4 3.542-3.536 6.138-1.639 1.785 1.306 1.792 1.607.19 7.316C242.54 32.274 242.443 39 244.465 39c1.587 0 6.536-6.642 6.536-8.772 0-2.34 3.957-9.135 5.938-10.195C258 19.465 260.118 19 261.647 19c1.812 0 3.518-.928 4.906-2.668 1.41-1.769 2.687-2.454 3.787-2.032 1.413.543 1.66 2.343 1.66 12.11 0 6.31.416 11.729.924 12.043 1.32.815 4.388-3.977 7.014-10.953 3.751-9.967 4.409-10.975 7.387-11.32l2.763-.321-.633 5.32-.633 5.321 2.215-3.5c2.772-4.38 3.676-4.966 7.705-4.985 2.126-.01 3.654.646 4.441 1.907 1.184 1.896 1.234 1.896 3.644 0 2.874-2.261 8.424-2.53 10.117-.49 1.492 1.798 1.728 6.42.706 13.818-.533 3.858-.448 5.75.258 5.75 1.228 0 4.28-5.775 6.077-11.5 1.13-3.599 3.015-6.887 3.015-5.26 0 .353-1.158 3.93-2.573 7.95-2.619 7.441-6.082 11.81-9.36 11.81-3.674 0-4.381-2.45-3.636-12.602.647-8.812.563-9.543-1.06-9.23-2.89.556-5.567 6.41-6.129 13.405-.566 7.056-1.148 7.918-4.732 7.019-3.294-.827-3.868-3.54-2.486-11.733 1.367-8.104.454-10.337-2.869-7.014-2.35 2.35-5.155 10.965-5.155 15.837 0 2.827-.352 3.318-2.378 3.318-3.099 0-4.385-1.669-5.196-6.74l-.662-4.14-2.632 5.19c-2.51 4.95-2.817 5.19-6.632 5.19-3.79 0-4.075-.216-5.429-4.133l-1.428-4.132-2.104 3.132c-2.627 3.912-6.572 4.6-9.513 1.659l-2.096-2.096-2.554 3.035c-4.21 5.003-10.428 3.661-11.996-2.588-.343-1.366-.336-4.649.015-7.295.618-4.659.563-4.797-1.736-4.357-1.452.277-2.984 1.733-3.945 3.748-.864 1.812-2.95 4.865-4.635 6.784-2.349 2.675-3.41 5.299-4.546 11.235-1.714 8.957-5.36 15.85-9.522 18.002-4.175 2.16-6.73 1.865-8.6-.99zm6.014-2.42c1.84-2.032 5.576-12.916 5.576-16.241 0-1.95-.043-1.949-2.914.096-3.158 2.249-8.086 11.14-8.086 14.59 0 3.918 2.609 4.666 5.424 1.555zm-64.35-21.736c1.18-3.22-1.1-5.81-4.39-4.984-3.393.852-5.305 4.183-3.589 6.251 1.827 2.2 7.008 1.378 7.979-1.267zM80 37c2.77-2.77 2.501-4-.878-4-1.582 0-3.437-.675-4.122-1.5-1.793-2.16-3-1.847-3 .777C72 35.117 74.632 39 76.557 39c.794 0 2.343-.9 3.443-2Zm102.896-3.797c2.248-4.405 3.595-10.599 2.642-12.14-1.103-1.786-4.56.747-6.123 4.485-.778 1.863-1.415 5.202-1.415 7.42 0 5.268 2.273 5.377 4.896.235zm27.926.547c2.372-3.884 4.753-11.508 3.87-12.392-.347-.346-1.719.085-3.05.957-2.334 1.53-5.642 9.071-5.642 12.863 0 2.902 2.658 2.114 4.822-1.428zm51.131-.658c2.413-4.73 3.658-11.597 2.259-12.461-2.78-1.718-7.212 6.281-7.212 13.018 0 4.641 2.441 4.366 4.953-.557zM83.411 28.5C84.51 24.12 82.252 18 79.538 18c-2.865 0-4.73 9.409-2.338 11.8 2.14 2.14 5.525 1.432 6.21-1.3zm-28.66-.75c1.156-1.238 2.42-3.532 2.808-5.099.594-2.39.422-2.793-1.07-2.5-3.337.655-8.22 9.849-5.23 9.849.765 0 2.337-1.012 3.493-2.25z"/></svg>
