<svg width="706.667" height="508" xmlns="http://www.w3.org/2000/svg"><path style="fill:#fff;stroke-width:1.33333" d="M224.667 503.874c-20.605-5.02-37.703-15.8-46.216-29.135-3.629-5.684-5.11-13.406-2.572-13.406.667 0 4.538 3.463 8.603 7.695 11.637 12.115 28.193 20.875 44.851 23.73 4.162.714 25.955.695 31.334-.027 16.66-2.236 47.955-12.965 49.777-17.064.245-.55 1.088-1 1.875-1 .786 0 3.396-1.5 5.8-3.334 2.403-1.833 4.86-3.336 5.459-3.339 1.955-.01 17.755-14.825 17.755-16.648 0-.975-3.931-4.257-8.737-7.291-10.193-6.438-19.719-15.782-26.492-25.986-13.029-19.629-16.402-34.831-9.208-41.498 1.96-1.816 4.961-3.653 6.67-4.082 4.732-1.187 21.54.356 29.725 2.73 10.508 3.048 31.651 2.798 44.133-.52 12.857-3.42 20.423-3.423 25.943-.012 4.883 3.018 8.648 9.807 8.604 15.514-.057 7.394-11.28 26.813-23.083 39.938-6.036 6.713-22.934 19.194-25.986 19.194-7.7 0 12.57 17.249 33.254 28.297 4.853 2.592 11.153 5.464 14 6.382 2.848.918 5.779 2.14 6.514 2.718.735.577 6.135 2.085 12 3.35 14.787 3.193 45.168 3.277 55.581.154 12.12-3.634 25.194-11.989 34.821-22.25 5.992-6.388 9.39-9.056 10.83-8.504 2.945 1.13 2.75 1.84-3.165 11.577-12.175 20.041-28.626 29.93-56.473 33.944-22.161 3.195-53.171-2.274-74.587-13.154-11.096-5.637-24.1-14.923-33.8-24.137-9.837-9.344-9.837-9.344-20.146.284-20.646 19.28-41.63 29.607-73.064 35.955-16.499 3.332-30.116 3.309-44-.075zm378.617-40.215c-1.44-.787-2.917-1.856-3.284-2.376-1.123-1.593-22.813-12.644-32.05-16.33-12.08-4.82-36.183-11.223-51.655-13.722-11.875-1.918-48.329-6.02-71.962-8.1-5.316-.467-9.666-1.057-9.666-1.312 0-.254 1.95-2.34 4.333-4.635 4.333-4.172 4.333-4.172 23.667-3.305 36.395 1.631 74.208 7.557 99.333 15.567 9.972 3.18 16.787 6.338 47.315 21.933 8.523 4.354 8.686 5.023 2.326 9.59-4.687 3.366-6.22 3.86-8.357 2.69zM94.691 451.71c-6.628-4.874-6.579-4.948 8.642-13.095 31.454-16.835 51.788-23.515 87.334-28.69 25.059-3.65 34.694-4.642 53.241-5.485 18.842-.858 18.842-.858 22.8 2.934 2.178 2.086 3.959 4.221 3.959 4.746 0 1.062-5.869 1.807-36 4.574-25.149 2.309-46.855 5.265-59.334 8.081-10.477 2.365-30.602 8.07-34.666 9.829-13.586 5.878-22.58 10.36-30.759 15.324-9.663 5.867-9.663 5.867-15.217 1.782zm354.612-61.79c-.777-2.042-1.134-4.436-.795-5.32 1.24-3.23 33.784-11.524 68.825-17.542 18.294-3.141 66.818-3.182 78.261-.066 15.126 4.12 25.176 9.503 28.975 15.521 1.887 2.99 3.431 6.128 3.431 6.976 0 2.681-10.648.3-21.88-4.89-23.126-10.69-48.794-10.87-105.453-.737-27.598 4.935-44 8.046-46.977 8.908-2.407.698-3.246.153-4.387-2.85zM248 382.63c-11.401-2.559-54.228-10.223-74-13.243-31.475-4.807-62.826-1.723-77.588 7.633-1.607 1.019-6.257 2.627-10.334 3.575-6.79 1.578-7.411 1.53-7.411-.572 0-3.854 5.784-11.146 11.372-14.338 2.912-1.662 10.094-4.658 15.961-6.657 10.408-3.547 11.41-3.635 41.333-3.61 30.817.024 41.7 1.229 67.334 7.455 3.3.802 9.6 2.252 14 3.222 14.563 3.211 27.676 7.05 29.162 8.535 1.065 1.065.924 2.426-.515 4.978-2.334 4.14-3.153 4.405-9.314 3.023zm191.466-18.714c-3.224-3.832-3.319-4.332-1.495-7.86 6.646-12.85 44.693-29.454 89.362-38.997 19.734-4.215 24.706-4.97 38.8-5.884 13.468-.874 13.468-.874 14.363 4.723.492 3.08.605 6.067.25 6.64-.354.574-8.917 1.465-19.028 1.98-10.112.514-21.085 1.46-24.385 2.104-14.102 2.747-26.185 5.557-28.666 6.667-1.467.656-5.067 1.895-8 2.753-9.38 2.745-34.914 15.859-45.079 23.152-5.413 3.883-10.48 7.455-11.26 7.937-.78.483-2.968-.964-4.862-3.215zm-188.8-13.948c-20.104-14.309-48.352-26.144-73.232-30.682-5.555-1.014-11.6-2.217-13.434-2.675-1.833-.457-10.997-1.162-20.365-1.566-9.367-.403-17.366-1.275-17.775-1.938-.41-.662-.343-3.582.148-6.488.893-5.285.893-5.285 9.11-5.172 7.028.096 19.201 1.493 26.215 3.009 1.1.237 4.7.882 8 1.432 12.474 2.079 34.57 7.857 50 13.076 37.535 12.695 57.077 27.553 47.562 36.164-3.559 3.22-5.179 2.705-16.228-5.16zM8.777 197.98c-2.764-4.217-4.198-12.897-6.044-36.579C.255 129.641 1.575 97.954 6.15 79.333c1.081-4.4 2.56-10.4 3.288-13.333.727-2.933 2.201-7.224 3.275-9.535 1.075-2.31 1.954-5.015 1.954-6.01 0-3.783 13.31-28.724 18.439-34.548C39.926 8.16 50.465 2.6 60.022 1.707 70.256.75 84.802 5 105.273 14.927c13.467 6.531 39.866 21.837 46.06 26.705.734.576 4.934 3.768 9.334 7.093 14.865 11.234 19.952 15.782 38 33.978C220.113 104.327 220 104.187 220 109.07c0 3.924-2.23 6.659-7.765 9.525-2.915 1.509-4.14.54-20.667-16.341-30.76-31.421-55.737-50.092-92.107-68.853-17.946-9.258-24.696-11.221-36.084-10.496-8.204.522-9.082.905-14.672 6.391-5.342 5.242-15.372 21.905-15.372 25.537 0 .787-.87 3.321-1.934 5.632-7.718 16.761-11.682 60.37-9.086 99.943.828 12.617 2.14 24.61 2.916 26.65 1.111 2.924.918 4.76-.912 8.66-2.058 4.386-2.944 4.994-7.789 5.349-4.653.34-5.807-.119-7.752-3.088zm674.823.98c-2.851-3.15-2.877-9.196-.128-30.066 4.12-31.278.702-82.297-7.204-107.562-9.844-31.457-22.491-41.923-45.108-37.33-7.92 1.609-30.593 11.779-39.159 17.566-2.567 1.734-9.467 6.104-15.333 9.712-24.582 15.116-43.294 31.299-74.453 64.388-3.637 3.863-8.972 3.827-12.648-.086-4.803-5.112-3.744-9.209 4.966-19.213 10.521-12.086 34.354-34.912 44.93-43.035 18.67-14.336 26.05-19.423 38.337-26.424 7.956-4.533 14.77-8.242 15.14-8.242.37 0 3.688-1.514 7.371-3.364 3.684-1.85 13.97-5.816 22.86-8.813 13.207-4.452 17.383-5.322 22.83-4.757 7.752.804 19.273 6.415 25.085 12.217 5.115 5.106 15.269 20.706 17.183 26.4.799 2.374 1.884 4.917 2.412 5.65 1.466 2.036 6.6 18.731 8.137 26.46.752 3.78 1.622 8.073 1.934 9.54 3.912 18.394 5.386 67.785 2.626 88a5156.071 5156.071 0 0 0-2.597 19.224c-.327 2.507-1.746 6.107-3.153 8-3.302 4.443-10.746 5.363-14.028 1.736zm-542.932-53.855c-1.467-.814-7.167-5.778-12.667-11.03-18.354-17.525-32.922-27.179-46.209-30.622-6.174-1.6-9.076-1.764-12.161-.689-6.89 2.402-13.917 1.1-16.21-3.006-3.042-5.443-.732-10.427 6.53-14.09 13.49-6.804 37.665-.76 59.952 14.99 1.046.738 8.696 7.972 17 16.074C150.672 130.165 152 131.887 152 136.305c0 3.827-.814 5.426-3.872 7.603-4.472 3.184-4.013 3.11-7.461 1.195zm416.769-1.89c-2.257-1.898-4.103-4.318-4.103-5.377 0-3.489 6.303-14.414 11.243-19.486 17.162-17.624 52.293-35.684 69.413-35.684 15.736 0 25.35 9.935 18.18 18.79-2.014 2.485-3.608 3.019-8.212 2.747-3.143-.185-6.776-.906-8.075-1.6-2.832-1.516-16.55 1.688-24.549 5.734-5.926 2.998-29.408 21.975-36.666 29.633-4.01 4.23-10.428 8.696-12.498 8.696-.347 0-2.477-1.554-4.733-3.452z"/></svg>